<svg width="326" height="326" viewBox="0 0 326 326" fill="none" xmlns="http://www.w3.org/2000/svg">
<g clip-path="url(#clip0_218_1467)">
<mask id="mask0_218_1467" style="mask-type:luminance" maskUnits="userSpaceOnUse" x="0" y="94" width="225" height="233">
<path d="M3.41697e-06 210.772C-0.00636114 236.663 8.87856 261.813 25.2399 282.215C41.6012 302.617 64.498 317.098 90.2841 323.353C116.07 329.608 143.263 327.276 167.531 316.73C191.8 306.183 211.749 288.028 224.202 265.155H145.842C136.185 269.748 125.478 271.846 114.75 271.248C104.021 270.651 93.6299 267.378 84.5723 261.744C75.5147 256.109 68.0945 248.302 63.0233 239.071C57.952 229.839 55.3997 219.493 55.6111 209.025C55.8225 198.556 58.7905 188.316 64.2305 179.286C69.6705 170.256 77.4001 162.74 86.6782 157.457C95.9562 152.174 106.472 149.302 117.216 149.116C127.961 148.93 138.574 151.437 148.038 156.396H224.185C211.728 133.533 191.78 115.387 167.516 104.846C143.252 94.3059 116.066 91.9766 90.2862 98.2293C64.5064 104.482 41.6141 118.958 25.2531 139.352C8.89213 159.746 0.00277167 184.886 3.41697e-06 210.772Z" fill="white"/>
</mask>
<g mask="url(#mask0_218_1467)">
<path d="M224.202 94.7645H0V326.776H224.202V94.7645Z" fill="#3BA9FB"/>
</g>
<mask id="mask1_218_1467" style="mask-type:luminance" maskUnits="userSpaceOnUse" x="129" y="0" width="199" height="225">
<path d="M154.181 0C150.643 0.215967 147.187 1.12709 144.02 2.67855C140.853 4.23 138.041 6.38971 135.753 9.02769C133.576 11.6563 131.955 14.6791 130.983 17.9215C130.011 21.1639 129.708 24.5618 130.091 27.919L130.623 76.4763H178.133L178.228 68.0421C178.103 66.3551 178.327 64.6609 178.887 63.0598C179.446 61.4587 180.33 59.9832 181.485 58.7206C182.64 57.458 184.043 56.434 185.611 55.7092C187.18 54.9843 188.881 54.5733 190.616 54.5005H219.003C283.302 50.8476 280.085 114.418 280.085 114.418C280.085 170.18 238.366 170.916 238.366 170.916L130.091 171.158V203.006C130.518 208.543 132.972 213.746 137.007 217.668C141.041 221.589 146.387 223.968 152.07 224.372H249.338C267.293 220.935 283.83 212.473 296.926 200.022C308.626 188.282 317.089 173.85 321.53 158.068C325.339 144.704 327.259 130.896 327.235 117.026C328.848 5.50857 236.153 0 236.153 0H154.181Z" fill="white"/>
</mask>
<g mask="url(#mask1_218_1467)">
<path d="M328.848 0H128.898V224.363H328.848V0Z" fill="#3BA9FB"/>
</g>
</g>
<defs>
<clipPath id="clip0_218_1467">
<rect width="326" height="326" fill="white"/>
</clipPath>
</defs>
</svg>
